<?xml version="1.0" standalone="no"?>
<!DOCTYPE svg PUBLIC "-//W3C//DTD SVG 20010904//EN"
 "http://www.w3.org/TR/2001/REC-SVG-20010904/DTD/svg10.dtd">
<svg version="1.0" xmlns="http://www.w3.org/2000/svg"
 width="360.000000pt" height="360.000000pt" viewBox="0 0 360.000000 360.000000"
 preserveAspectRatio="xMidYMid meet">
<metadata>
Created by potrace 1.11, written by Peter Selinger 2001-2013
</metadata>
<g transform="translate(0.000000,360.000000) scale(0.100000,-0.100000)"
fill="#000000" stroke="none">
<path d="M0 1800 l0 -1800 1800 0 1800 0 0 1800 0 1800 -1800 0 -1800 0 0
-1800z m2117 1258 l323 -183 0 -370 0 -371 -205 -118 -205 -119 0 -576 c0
-377 4 -571 10 -561 5 8 58 99 117 202 l108 187 71 -70 71 -70 103 121 c56 67
103 120 105 118 2 -2 145 -194 319 -427 249 -334 313 -427 304 -438 -6 -7 -12
-12 -13 -11 -2 2 -139 185 -304 408 -166 223 -306 405 -311 405 -7 0 -98 -101
-169 -188 -12 -15 13 -45 224 -267 179 -190 235 -255 230 -268 -5 -13 -40 18
-163 148 -86 91 -195 204 -242 253 l-85 88 -116 -138 -117 -138 34 -3 34 -3 0
-150 0 -149 -445 0 -445 0 0 150 0 150 50 0 c28 0 50 2 50 5 0 9 -233 280
-241 280 -4 0 -110 -108 -236 -240 -125 -132 -233 -241 -239 -243 -39 -10 1
40 212 264 129 137 233 254 232 260 -2 7 -38 53 -82 104 -75 89 -79 91 -96 74
-9 -11 -146 -193 -305 -406 -257 -346 -315 -416 -315 -377 0 11 585 805 619
841 15 15 23 8 111 -97 l95 -113 65 64 c36 35 68 64 72 64 3 0 54 -86 113
-190 59 -105 109 -190 111 -190 2 0 4 253 4 563 l0 562 -203 115 -202 116 0
373 0 373 310 183 c171 101 312 184 314 184 3 1 150 -81 328 -181z"/>
<path d="M1615 2890 c-10 -11 -15 -28 -12 -39 7 -28 -130 -163 -158 -155 -25
6 -58 -26 -53 -52 5 -28 71 -55 140 -57 l63 -2 5 -71 c10 -130 84 -203 213
-212 l72 -4 1 -62 c1 -59 28 -135 55 -151 15 -10 60 35 57 57 -4 24 130 158
159 158 23 0 66 46 57 61 -15 25 -89 51 -149 51 l-63 0 -4 73 c-3 62 -8 80
-34 117 -43 61 -103 92 -180 93 l-62 0 -4 65 c-6 76 -39 150 -67 150 -10 0
-26 -9 -36 -20z m4 -206 c-6 -8 -29 -14 -52 -14 l-41 0 49 51 50 50 3 -36 c2
-20 -2 -43 -9 -51z m121 -120 l-45 -45 -3 31 c-5 50 3 60 50 60 l42 0 -44 -46z
m144 4 c9 -15 0 -29 -59 -88 -71 -71 -89 -79 -109 -48 -9 15 0 29 59 88 71 71
89 79 109 48z m27 -130 c-6 -41 -8 -43 -46 -49 -22 -4 -42 -5 -44 -3 -5 5 80
94 89 94 4 0 4 -19 1 -42z m119 -163 c-54 -55 -55 -55 -58 -29 -8 63 8 81 78
83 l34 1 -54 -55z"/>
<path d="M1650 1830 l0 -40 145 0 145 0 0 40 0 40 -145 0 -145 0 0 -40z"/>
<path d="M1650 1680 l0 -40 145 0 145 0 0 40 0 40 -145 0 -145 0 0 -40z"/>
<path d="M1650 1520 l0 -40 146 0 145 0 -3 38 -3 37 -142 3 -143 3 0 -41z"/>
<path d="M1650 1360 l0 -40 146 0 145 0 -3 38 -3 37 -142 3 -143 3 0 -41z"/>
<path d="M1650 1190 l0 -41 143 3 142 3 3 38 3 37 -145 0 -146 0 0 -40z"/>
<path d="M1286 1049 c-26 -29 -45 -58 -42 -65 3 -7 62 -80 132 -163 117 -139
130 -151 161 -151 18 0 33 5 33 10 0 10 -215 397 -230 413 -4 5 -28 -15 -54
-44z"/>
<path d="M2161 888 c-63 -112 -116 -206 -118 -210 -2 -5 15 -8 39 -8 43 1 44
1 153 131 61 72 118 142 128 155 l19 24 -54 55 -53 55 -114 -202z"/>
<path d="M1650 1030 l0 -41 143 3 142 3 3 38 3 37 -145 0 -146 0 0 -40z"/>
<path d="M1650 870 l0 -40 145 0 145 0 0 40 0 40 -145 0 -145 0 0 -40z"/>
<path d="M1650 710 l0 -40 145 0 145 0 0 40 0 40 -145 0 -145 0 0 -40z"/>
</g>
</svg>
