<?xml version="1.0" encoding="utf-8"?>
<!-- Generator: Adobe Illustrator 17.1.0, SVG Export Plug-In . SVG Version: 6.00 Build 0)  -->
<!DOCTYPE svg PUBLIC "-//W3C//DTD SVG 1.1//EN" "http://www.w3.org/Graphics/SVG/1.1/DTD/svg11.dtd">
<svg version="1.1" id="Layer_1" xmlns="http://www.w3.org/2000/svg" xmlns:xlink="http://www.w3.org/1999/xlink" x="0px" y="0px"
	 viewBox="0 0 250 250" enable-background="new 0 0 250 250" xml:space="preserve">
<g>
	<path d="M247.8,249.9l2.4-1.8l-55.5-74.5l-18.1,21.2l-12-12.4L144,218.1V117.6l35.9-20.9l-0.4-64.1L123.6,0.9L68.3,33.3l0.3,64.1
		l35.3,20.2v98.6l-19.6-34.8l-11.5,12.3l-17.1-20.1L0.3,248.1l2.4,1.8L56,178.4l15,17.6l-41.5,44l2.1,2l41.3-43.5L94.4,224H85v26h77
		v-26h-5.9l20.7-24.5l41.2,43.5l2.1-2L178.6,197l15.9-18.7L247.8,249.9z M98.3,224l-23.4-27.8l8.9-9.8L104,222v2H98.3z M136,224h-25
		v-7h25V224z M136,210h-25v-7h25V210z M136,196h-25v-7h25V196z M136,182h-25v-7h25V182z M136,168h-25v-7h25V168z M136,154h-25v-7h25
		V154z M136,140h-25v-7h25V140z M136,127h-25v-7h25V127z M137.1,101.5c-0.3,0-0.6-0.1-0.9-0.4c-5.4-5.9-5.3-12.9-4.4-18.9
		c-6.3,1-13.5,1-19.6-5c-6.1-6.1-6-13.2-5-19.5c-6,0.9-13,1-18.9-4.4C88.2,53,88,52.7,88,52.4c0-0.3,0.1-0.6,0.3-0.9l3.6-3.6
		c0.4-0.4,1.2-0.5,1.6-0.1c0.4,0.3,0.8,0.6,1.1,0.9l13-13c-0.3-0.4-0.6-0.8-0.9-1.1c-0.4-0.5-0.4-1.2,0.1-1.6l3.6-3.6
		c0.2-0.2,0.5-0.4,0.9-0.3c0.3,0,0.6,0.1,0.9,0.4c5.4,5.9,5.3,12.9,4.4,18.9c6.3-1,13.5-1,19.5,5c6.1,6.1,6,13.2,5,19.5
		c6-0.9,12.9-1,18.8,4.3c0,0,0.1,0.1,0.1,0.1c0.5,0.5,0.5,1.2,0,1.7c0,0,0,0,0,0l-3.6,3.6c-0.4,0.4-1.2,0.5-1.6,0.1
		c-0.4-0.3-0.7-0.6-1.1-0.9l-13,13c0.3,0.4,0.6,0.8,0.9,1.1c0.4,0.5,0.4,1.2-0.1,1.6l-3.6,3.6C137.7,101.4,137.4,101.5,137.1,101.5z
		 M152.2,224h-7.5l20.7-36.5l9.3,9.9L152.2,224z"/>
	<path d="M139.7,80.7c-0.7,3.4-1.1,6.3-0.8,8.9l9.7-9.7C146,79.7,143.2,80,139.7,80.7z"/>
	<path d="M125,75.2c2.4,0.2,5.1-0.2,8.3-0.8c0.6-3.2,1-5.9,0.8-8.3L125,75.2z"/>
	<path d="M130.9,58.6c-0.6-0.6-1.3-1.2-2.1-1.7l-12.9,12.9c0.5,0.7,1,1.4,1.7,2.1c0.6,0.6,1.3,1.2,2.1,1.7l12.9-12.9
		C132.1,59.9,131.6,59.2,130.9,58.6z"/>
	<path d="M115.2,56.1c-0.6,3.2-1,5.9-0.8,8.3l9.2-9.2C121,55.1,118.4,55.5,115.2,56.1z"/>
	<path d="M99.9,50.6c2.6,0.3,5.4-0.1,8.9-0.8c0.7-3.4,1-6.3,0.8-8.9L99.9,50.6z"/>
</g>
</svg>
