<?xml version="1.0" encoding="utf-8"?>
<!-- Generator: Adobe Illustrator 17.1.0, SVG Export Plug-In . SVG Version: 6.00 Build 0)  -->
<!DOCTYPE svg PUBLIC "-//W3C//DTD SVG 1.1//EN" "http://www.w3.org/Graphics/SVG/1.1/DTD/svg11.dtd">
<svg version="1.1" id="Layer_1" xmlns="http://www.w3.org/2000/svg" xmlns:xlink="http://www.w3.org/1999/xlink" x="0px" y="0px"
	 viewBox="0 0 633 261.7" enable-background="new 0 0 633 261.7" xml:space="preserve">
<rect x="0" y="0" fill="none" width="633" height="261.7"/>
<g>
	<g>
		<path fill="#007D43" d="M489.6,175.8c5.5-0.3,7-1.1,11.5-11.9l17.6-43h1.4l21.7,49c2.1,4.6,4,5.9,8.2,5.9v2.8
			c-5.5-0.1-9.1-0.2-12.3-0.2c-3.2,0-6.6,0.2-12.5,0.2v-2.8c4.7,0,6-0.8,6-3c0-0.9-0.6-2.6-2.2-6.6l-3.1-7.4h-17.6l-2.7,6.4
			c-2,5.6-2.2,6.6-2.2,7.4c0,2.1,0.5,3,5.7,3v2.8c-7.2-0.2-8-0.2-9.9-0.2c-2,0-2.8,0-9.6,0.2V175.8z M524.3,155.4l-7.9-18.8
			l-6.9,18.8H524.3z"/>
		<path fill="#007D43" d="M342.4,175.8c5.2-0.1,6.6-2,6.6-6.5v-39.2c0-4.5-1.4-6.4-6.6-6.5v-2.9c2.7,0.1,6.6,0.2,10.7,0.2
			c12.3,0,22.1-0.2,29.6-0.2l0.3,14h-2.6c-1.3-7.7-4.7-10.4-14.3-10.4h-7v23h6.2c7.3,0,8.3-2.5,8.9-7.5h2.7
			c-0.1,3.1-0.2,6.1-0.2,8.6c0,3.8,0.1,6.8,0.2,10h-2.7c0-6.3-2-7.8-9-7.8h-6.1v18.9c0,3.7,1.5,5.7,9.1,5.7
			c8.2,0,13.9-1.5,15.8-11.6h2.7c-0.5,3.8-1.2,11-1.2,15.1c-7.8-0.1-17.9-0.2-30.5-0.2c-6.2,0-11,0.2-12.6,0.2V175.8z"/>
		<path fill="#007D43" d="M394.7,175.8c5.2-0.1,6.6-2,6.6-6.5v-39.2c0-4.5-1.4-6.4-6.6-6.5v-2.9c3.8,0.1,7,0.2,9.9,0.2
			c5.2,0,10.5-0.2,15.7-0.2c13.9,0,18.3,7.5,18.3,15.3c0,5.4-3.4,11.5-11.1,13.9l10,18.4c3.6,6.7,5.5,8.2,10.1,8.8v1.9
			c-1.2,0.1-2.4,0.2-3.7,0.2c-10.6,0-15.1-3.7-19.5-13.2l-3.1-6.4c-3.4-7.1-4.5-7.7-9.9-7.8v17.4c0,4.5,1.4,6.4,6.6,6.5v2.8
			c-6.4-0.2-9.1-0.2-11.7-0.2s-5.3,0.1-11.7,0.2V175.8z M411.5,148.5c1.5,0.3,3.7,0.6,5.3,0.6c7.2,0,11.5-3.1,11.5-10.9
			c0-5.8-3-14.6-13.4-14.6c-1.4,0-2.3,0.1-3.4,0.3V148.5z"/>
		<path fill="#007D43" d="M459.1,175.8c5.2-0.1,6.6-2,6.6-6.5v-44.1h-7c-6.4,0-10.7,1.8-11.1,11.9h-3l0.5-16.4
			c8.6,0.1,17.1,0.2,25.7,0.2c8.6,0.1,17.1-0.2,25.7-0.2l0.5,16.4h-3c-0.5-10.1-4.7-11.9-11.1-11.9h-7v44.1c0,4.5,1.4,6.4,6.6,6.5
			v2.8c-6.4-0.2-9.1-0.2-11.7-0.2c-2.6,0-5.3,0.1-11.7,0.2V175.8z"/>
		<path fill="#007D43" d="M350.5,109.2l-4.6-9.7h-2.2v9.7h-6.4V83.1h10.3c5.8,0,8.9,4.1,8.9,8.4c0,3.6-2.2,5.8-4.2,6.8l5.6,10.9
			H350.5z M347.3,88.8h-3.6v5.3h3.6c1.8,0,2.8-1.3,2.8-2.6C350.1,90.1,349.1,88.8,347.3,88.8z"/>
		<path fill="#007D43" d="M375.8,109.4c-4,0-7.2-0.7-9.9-3.4l4.1-4.1c1.4,1.4,3.7,1.8,5.8,1.8c2.5,0,3.7-0.8,3.7-2.3
			c0-0.6-0.1-1.1-0.5-1.5c-0.3-0.3-0.9-0.6-1.7-0.7l-3.2-0.4c-2.3-0.3-4.1-1.1-5.2-2.3c-1.2-1.2-1.8-3-1.8-5.2
			c0-4.8,3.6-8.2,9.5-8.2c3.7,0,6.6,0.9,8.8,3.1l-4,4c-1.6-1.6-3.8-1.5-4.9-1.5c-2.2,0-3.2,1.3-3.2,2.4c0,0.3,0.1,0.8,0.5,1.2
			c0.3,0.3,0.9,0.7,1.8,0.8l3.2,0.4c2.3,0.3,4,1.1,5.1,2.2c1.4,1.4,1.9,3.3,1.9,5.7C385.8,106.5,381.3,109.4,375.8,109.4z"/>
		<path fill="#007D43" d="M397,109.2V83.1h6.4v26.1H397z"/>
		<path fill="#007D43" d="M427.1,88.8v20.4h-6.4V88.8h-6.4v-5.7h19.2v5.7H427.1z"/>
		<path fill="#007D43" d="M456,98.5v10.6h-6.4V98.5l-7.9-15.5h7l4.1,9.4l4.1-9.4h7L456,98.5z"/>
		<path fill="#007D43" d="M501.7,106.4c-1.9,1.9-4.1,2.9-7.3,2.9c-3.2,0-5.4-1-7.3-2.9c-2.7-2.7-2.6-6.4-2.6-10.3
			c0-3.9-0.1-7.6,2.6-10.3c1.9-1.9,4.1-2.9,7.3-2.9c3.2,0,5.4,1,7.3,2.9c2.7,2.7,2.6,6.4,2.6,10.3
			C504.3,100,504.4,103.7,501.7,106.4z M496.9,89.7c-0.5-0.6-1.4-1.1-2.6-1.1c-1.2,0-2.1,0.5-2.6,1.1c-0.6,0.8-1,1.6-1,6.4
			c0,4.8,0.4,5.6,1,6.4c0.5,0.6,1.4,1.2,2.6,1.2c1.2,0,2.1-0.5,2.6-1.2c0.6-0.8,1-1.6,1-6.4C497.9,91.4,497.5,90.5,496.9,89.7z"/>
		<path fill="#007D43" d="M522.1,88.8v4.6h9.7v5.7h-9.7v10.1h-6.4V83.1h17.7v5.7H522.1z"/>
		<path fill="#007D43" d="M174.4,175.8c5.5-0.3,7-1.1,11.5-11.9l17.6-43h1.4l21.7,49c2.1,4.6,4,5.9,8.2,5.9v2.8
			c-5.5-0.1-9-0.2-12.3-0.2c-3.2,0-6.6,0.2-12.5,0.2v-2.8c4.7,0,6-0.8,6-3c0-0.9-0.6-2.6-2.2-6.6l-3.1-7.4h-17.6l-2.7,6.4
			c-2,5.6-2.2,6.6-2.2,7.4c0,2.1,0.5,3,5.7,3v2.8c-7.2-0.2-8-0.2-9.9-0.2c-2,0-2.8,0-9.6,0.2V175.8z M209.1,155.4l-7.9-18.8
			l-6.9,18.8H209.1z"/>
		<path fill="#007D43" d="M239.2,175.8c5.2-0.1,6.6-2,6.6-6.5v-39.2c0-4.5-1.4-6.4-6.6-6.5v-2.9c6.4,0.2,9.1,0.2,11.7,0.2
			c2.6,0,5.3-0.1,11.7-0.2v2.9c-5.2,0.1-6.6,2-6.6,6.5v39.2c0,4.2,2.3,5.5,9,5.5c10.6,0,15.9-1.4,17.5-11.3h2.7l-1.3,15.1
			c-4-0.1-9.8-0.1-16.7-0.2c-6.7-0.1-14.3-0.1-22-0.1c-2.4,0-4.5,0.1-5.9,0.2V175.8z"/>
		<path fill="#007D43" d="M289.2,175.8c5.2-0.1,6.6-2,6.6-6.5v-39.2c0-4.5-1.4-6.4-6.6-6.5v-2.9c3.8,0.2,7,0.2,10.2,0.2
			c5,0,9.9-0.2,14.9-0.2c8.3,0,18.5,2.9,18.5,14.5c0,6.3-5,11.5-13.5,12.9v0.2c9.6,1.4,15.8,5.4,15.8,14.8c0,4.4-1.8,8.6-4.5,11.1
			c-3.3,3-7.3,4.5-16.1,4.5c-5.4,0-12-0.2-16.2-0.2c-3.6,0-6.6,0.1-9.1,0.2V175.8z M306,147.5h3.8c8,0,12.9-3.2,12.9-10.5
			c0-8.3-4.4-13.1-13.1-13.1H306V147.5z M306,170.2c0,3.8,1.5,5,6.8,5c7.7,0,11.5-3.6,11.5-10.4c0-9-6.4-14.3-17.2-14.3h-1V170.2z"
			/>
		<path fill="#007D43" d="M205.6,109.4c-5.4,0-9.9-3.7-9.9-9.4V83.1h6.4v16.8c0,2.4,1.3,3.8,3.4,3.8c2.1,0,3.5-1.4,3.5-3.8V83.1h6.4
			V100C215.6,105.7,211.1,109.4,205.6,109.4z"/>
		<path fill="#007D43" d="M242.3,109.2L233.9,96v13.1h-6.4V83.1h5.6l8.3,13.1V83.1h6.4v26.1H242.3z"/>
		<path fill="#007D43" d="M260.3,109.2V83.1h6.4v26.1H260.3z"/>
		<path fill="#007D43" d="M289.9,109.2h-4.8l-8.6-26.1h6.6l4.4,14.6l4.3-14.6h6.7L289.9,109.2z"/>
		<path fill="#007D43" d="M308.1,109.2V83.1h17.7v5.7h-11.3v4.4h9.7v5.7h-9.7v4.6h11.3v5.7H308.1z"/>
	</g>
	<g>
		<g>
			<path fill="#007D43" d="M124.6,183.8l-0.8-0.3c-0.5-0.2-12.7-4.4-24.7-14.7c-14.5-12.5-16.1-31.5-16.1-39V83.1l1.4-0.7
				c11.4-5.6,24.2-8.2,40.2-8.2c16,0,28.7,2.6,40.2,8.2l1.4,0.7v46.7c0,7.5-1.6,26.4-16.1,39c-12,10.3-24.2,14.6-24.7,14.7
				L124.6,183.8z"/>
			<path fill="#FFF1C0" d="M124.6,79.1c-14.6,0-26.3,2.2-36.7,7v30.5c4.3-2.5,7.9-5.5,10.6-8.6c3.2,3.7,7.7,7.2,13,10
				c5.4-2.8,9.8-6.2,13-10c3.2,3.7,7.7,7.2,13,10c5.4-2.8,9.8-6.2,13-10c2.7,3.2,6.3,6.1,10.6,8.6V86.1
				C150.9,81.3,139.2,79.1,124.6,79.1z M143.2,103.4c-4.2,0-7.1-0.6-11.2-1.5c-0.7-0.2-1.5-0.2-2.2-0.2c-1.6,0-3,0.4-4.2,0.9
				c-0.3,0.2-0.7,0.3-1,0.5c-0.3-0.2-0.6-0.4-1-0.5c-1.2-0.5-2.6-0.9-4.2-0.9c-0.7,0-1.4,0.1-2.2,0.2c-4.1,0.9-7.1,1.5-11.2,1.5
				c-0.6,0-1.2,0-1.8,0l1.3-14c0.7,0,1.3,0,1.9,0.1l0.3-4.4l1.3,0.1c0.5,0,0.9,0,1.4,0c1.5,0,2.7-0.1,4.1-0.4
				c0.9-0.2,1.8-0.4,2.8-0.7c0.5-0.1,1-0.3,1.5-0.4c1.8-0.4,3.5-0.2,5,0.7c0.3,0.2,0.6,0.4,0.8,0.6c0.3-0.2,0.6-0.4,0.9-0.6
				c1.5-0.9,3.3-1.1,5-0.7c0.6,0.1,1.1,0.3,1.6,0.4c1,0.3,1.9,0.5,2.7,0.7c1.9,0.4,3.5,0.5,5.5,0.4l1.3-0.1l0.3,4.4
				c0.6,0,1.2,0,1.9-0.1l1.3,14C144.4,103.4,143.8,103.4,143.2,103.4z"/>
			<g>
				<path fill="#FFFFFF" d="M118.3,97.9l-0.1,0c-3.4,0.9-5.7,1.4-8.9,1.4l0.9-11.6c1.7,0,3.2-0.1,4.9-0.5c0.9-0.2,1.9-0.4,2.9-0.7
					c0.5-0.1,0.9-0.3,1.5-0.4c1.1-0.3,2.2-0.1,3.1,0.4c0.4,0.2,0.6,0.4,0.8,0.6v10.9C121.7,97.6,119.9,97.5,118.3,97.9z"/>
				<path fill="#FFFFFF" d="M131,97.9c-1.7-0.4-3.4-0.4-5.1,0.2V87.2c0.2-0.2,0.5-0.4,0.8-0.6c0.9-0.5,2-0.7,3.1-0.4
					c0.5,0.1,1,0.3,1.5,0.4c1,0.3,1.9,0.5,2.9,0.7c1.6,0.3,3,0.5,4.7,0.5c0.1,0,0.1,0,0.2,0l0.9,11.6
					C136.7,99.4,134.4,98.8,131,97.9z"/>
			</g>
			<g>
				<path fill="#49965F" d="M124.6,122.7c4.8-1.1,9.2-2.7,13-4.7c-5.4-2.8-9.8-6.2-13-10c-3.2,3.7-7.7,7.2-13.1,10
					C115.5,120,119.9,121.6,124.6,122.7z"/>
				<path fill="#05894F" d="M98.6,122.7c4.1,0.9,8.5,1.5,13.1,1.5c4.6,0,8.9-0.5,13-1.4c-4.8-1.1-9.1-2.7-13-4.7
					C107.7,120,103.3,121.6,98.6,122.7z"/>
				<path fill="#05894F" d="M124.6,122.7c4.1,0.9,8.4,1.4,13,1.4c4.6,0,9-0.5,13.1-1.5c-4.8-1.1-9.1-2.7-13-4.7
					C133.8,120,129.4,121.6,124.6,122.7z"/>
				<path fill="#3D925A" d="M87.9,124.1c3.7-0.2,7.3-0.6,10.6-1.4c-3.8-0.9-7.4-2.1-10.6-3.6V124.1z"/>
				<path fill="#7DAB76" d="M87.9,116.7v2.5c3.3,1.5,6.8,2.7,10.6,3.6c4.7-1.1,9.1-2.7,13-4.7c-5.4-2.8-9.8-6.2-13-10
					C95.8,111.2,92.2,114.2,87.9,116.7z"/>
				<path fill="#3D925A" d="M161.3,119.1c-3.3,1.5-6.8,2.7-10.6,3.6c3.4,0.8,6.9,1.2,10.6,1.4V119.1z"/>
				<path fill="#7DAB76" d="M161.3,119.1v-2.5c-4.3-2.5-7.9-5.5-10.6-8.6c-3.2,3.7-7.7,7.2-13,10c3.9,2,8.3,3.6,13,4.7
					C154.5,121.8,158,120.6,161.3,119.1z"/>
			</g>
			<path fill="#FFDC09" d="M156.9,130.7c-1.9-1.2-3.8-2.4-6.2-2.4c-2.4,0-4.2,1.2-6.2,2.4c-2,1.3-4.1,2.6-6.9,2.6
				c-2.8,0-4.9-1.3-6.9-2.6c-1.9-1.2-3.8-2.4-6.2-2.4s-4.2,1.2-6.2,2.4c-2,1.3-4.1,2.6-6.9,2.6c-2.8,0-4.9-1.3-6.9-2.6
				c-1.9-1.2-3.8-2.4-6.2-2.4c-2.4,0-4.2,1.2-6.2,2.4c-1.4,0.9-2.7,1.7-4.3,2.2c0.1,1.8,0.3,4,0.7,6.3c1.1-0.5,2.2-1.1,3.2-1.8
				c1.9-1.2,4-2.5,6.6-2.5c2.6,0,4.6,1.3,6.6,2.5c2,1.3,3.9,2.5,6.5,2.5c2.6,0,4.5-1.2,6.5-2.5c1.9-1.2,4-2.5,6.6-2.5
				c2.6,0,4.6,1.3,6.6,2.5c2,1.3,3.9,2.5,6.5,2.5c2.6,0,4.5-1.2,6.5-2.5c1.9-1.2,4-2.5,6.6-2.5s4.6,1.3,6.6,2.5
				c1,0.7,2.1,1.3,3.2,1.8c0.4-2.4,0.6-4.5,0.7-6.3C159.6,132.5,158.2,131.6,156.9,130.7z"/>
		</g>
		<g>
			<path fill="#FFEB98" d="M128.4,177v-2.9l-3.4,3.4l-2.9-2.8v-4.4l2.9,2.8l3.4-3.4v-4.8l-3.4,3.4l-2.9-2.8v-4.6l2.9,2.8l3.4-3.4
				v-5.2l-3.4,3.4l-2.9-2.8v-4.3l2.9,2.6l4.9-4.8l-5.2-4.4l-5.7,4.9v26.3c2.6,1.3,4.6,2.1,5.7,2.5
				C125.4,178.3,126.7,177.8,128.4,177z"/>
			<path fill="#FFEB98" d="M115.4,165.4l-3.4,3.5l-2.9-3v-4.6l2.9,2.9l3.4-3.5v-5.4l-3.4,3.4L109,156v-4.6l2.9,2.6l4.9-4.8l-5.2-4.4
				l-5.7,4.9V168c3.3,2.5,6.6,4.6,9.4,6.2V165.4z"/>
			<path fill="#FFEB98" d="M138,154.1l4.9-4.8l-5.2-4.4l-5.7,4.9v25.4c2.8-1.5,6-3.4,9.4-5.8v-4l-3.4,3.5l-2.9-3v-4.6l2.9,2.9
				l3.4-3.5v-5.4l-3.4,3.4l-2.9-2.9v-4.6L138,154.1z"/>
			<path fill="#FFEB98" d="M151,154.1l4.9-4.8l-5.2-4.4l-5.7,4.9v16.9c0.6-0.5,1.3-1,1.9-1.6c3.1-2.7,5.6-5.8,7.5-8.9v-0.7l-3.4,3.4
				l-2.9-2.9v-4.6L151,154.1z"/>
			<path fill="#FFEB98" d="M98.9,154.1l4.9-4.8l-5.2-4.4l-5.7,4.9v2.8c2.1,4.4,5.1,8.8,9.4,12.5v-9.7l-3.4,3.4L96,156v-4.6
				L98.9,154.1z"/>
		</g>
	</g>
</g>
</svg>
